<svg xmlns="http://www.w3.org/2000/svg" xmlns:xlink="http://www.w3.org/1999/xlink" width="100" zoomAndPan="magnify" viewBox="0 0 75 74.999997" height="100" preserveAspectRatio="xMidYMid meet" version="1.0"><defs><clipPath id="8cdcd36244"><path d="M 26 0.351562 L 29 0.351562 L 29 3 L 26 3 Z M 26 0.351562 " clip-rule="nonzero"/></clipPath><clipPath id="a594037803"><path d="M 0.292969 52 L 3 52 L 3 55 L 0.292969 55 Z M 0.292969 52 " clip-rule="nonzero"/></clipPath><clipPath id="71b470edd1"><path d="M 73 48 L 74.542969 48 L 74.542969 50 L 73 50 Z M 73 48 " clip-rule="nonzero"/></clipPath><clipPath id="901a7fb935"><path d="M 32 73 L 34 73 L 34 74.601562 L 32 74.601562 Z M 32 73 " clip-rule="nonzero"/></clipPath><clipPath id="3ea08cd6cd"><path d="M 14.160156 17 L 62.910156 17 L 62.910156 61 L 14.160156 61 Z M 14.160156 17 " clip-rule="nonzero"/></clipPath></defs><path fill="#47c5fb" d="M 40.464844 72.304688 C 37.261719 72.308594 34.125 71.851562 31.058594 70.933594 C 27.988281 70.015625 25.117188 68.675781 22.4375 66.917969 C 15.410156 62.304688 10.664062 55.359375 9.070312 47.367188 L 9.625 47.253906 C 12.851562 63.453125 29.246094 74.207031 46.167969 71.238281 C 58.253906 69.113281 67.894531 60.355469 70.722656 48.921875 L 71.273438 49.058594 C 69.878906 54.691406 66.839844 59.800781 62.488281 63.828125 C 58.023438 67.960938 52.414062 70.714844 46.261719 71.796875 C 44.34375 72.132812 42.410156 72.304688 40.464844 72.304688 Z M 40.464844 72.304688 " fill-opacity="1" fill-rule="nonzero"/><path fill="#47c5fb" d="M 70.03125 26.675781 C 65.597656 12.777344 51.125 3.863281 35.605469 5.46875 C 25.347656 6.535156 16.191406 12.171875 11.121094 20.550781 L 10.632812 20.253906 C 13.128906 16.128906 16.679688 12.550781 20.886719 9.910156 C 25.230469 7.179688 30.304688 5.449219 35.546875 4.910156 C 43.222656 4.113281 50.980469 5.871094 57.390625 9.871094 C 63.730469 13.824219 68.410156 19.730469 70.570312 26.5 Z M 70.03125 26.675781 " fill-opacity="1" fill-rule="nonzero"/><path fill="#47c5fb" d="M 35.765625 71.824219 C 32.511719 71.828125 29.320312 71.375 26.195312 70.460938 C 23.070312 69.546875 20.140625 68.210938 17.398438 66.453125 C 10.203125 61.824219 5.355469 54.84375 3.75 46.792969 L 4.09375 46.726562 C 7.367188 63.160156 24.277344 74.03125 41.785156 70.953125 C 53.828125 68.835938 63.4375 60.660156 66.867188 49.609375 L 67.191406 49.710938 C 65.527344 55.074219 62.335938 59.914062 57.957031 63.707031 C 53.460938 67.605469 47.890625 70.226562 41.847656 71.289062 C 39.835938 71.644531 37.808594 71.820312 35.765625 71.824219 Z M 35.765625 71.824219 " fill-opacity="1" fill-rule="nonzero"/><path fill="#47c5fb" d="M 67.101562 31.601562 C 65.125 15.136719 49.113281 3.234375 31.414062 5.074219 C 20.53125 6.210938 11.085938 12.316406 6.144531 21.421875 L 5.847656 21.261719 C 10.847656 12.058594 20.386719 5.878906 31.382812 4.734375 C 40.042969 3.835938 48.566406 6.128906 55.375 11.191406 C 62.183594 16.257812 66.472656 23.492188 67.441406 31.5625 Z M 67.101562 31.601562 " fill-opacity="1" fill-rule="nonzero"/><path fill="#47c5fb" d="M 37.765625 71.355469 C 36.066406 71.355469 34.375 71.230469 32.695312 70.980469 C 29.136719 70.453125 25.746094 69.390625 22.523438 67.785156 C 16.132812 64.605469 10.988281 59.457031 8.039062 53.292969 L 8.347656 53.148438 C 14.472656 65.945312 29.03125 73.078125 43.746094 70.492188 C 53.835938 68.71875 62.511719 62.460938 66.949219 53.757812 L 67.253906 53.910156 C 64.992188 58.300781 61.871094 61.953125 57.890625 64.867188 C 53.804688 67.863281 48.933594 69.925781 43.804688 70.828125 C 41.804688 71.179688 39.792969 71.355469 37.765625 71.355469 Z M 37.765625 71.355469 " fill-opacity="1" fill-rule="nonzero"/><path fill="#47c5fb" d="M 71.605469 30.882812 C 71.570312 30.417969 71.527344 29.949219 71.472656 29.488281 C 69.496094 13.019531 53.484375 1.117188 35.78125 2.957031 C 22.191406 4.371094 10.984375 13.640625 7.894531 26.035156 L 7.566406 25.953125 C 9.078125 19.882812 12.515625 14.457031 17.503906 10.257812 C 22.59375 5.972656 28.902344 3.328125 35.75 2.621094 C 44.410156 1.71875 52.929688 4.011719 59.746094 9.074219 C 66.5625 14.140625 70.839844 21.375 71.808594 29.441406 C 71.863281 29.910156 71.910156 30.386719 71.941406 30.855469 Z M 71.605469 30.882812 " fill-opacity="1" fill-rule="nonzero"/><path fill="#0277bd" d="M 68.132812 29.398438 C 68.132812 29.65625 68.035156 29.875 67.839844 30.058594 C 67.644531 30.238281 67.40625 30.332031 67.132812 30.332031 C 66.855469 30.332031 66.617188 30.238281 66.421875 30.058594 C 66.226562 29.875 66.128906 29.65625 66.128906 29.398438 C 66.128906 29.140625 66.226562 28.917969 66.421875 28.738281 C 66.617188 28.554688 66.855469 28.464844 67.132812 28.464844 C 67.40625 28.464844 67.644531 28.554688 67.839844 28.738281 C 68.035156 28.917969 68.132812 29.140625 68.132812 29.398438 Z M 68.132812 29.398438 " fill-opacity="1" fill-rule="nonzero"/><path fill="#0277bd" d="M 61.023438 11.929688 C 61.023438 12.1875 60.925781 12.40625 60.730469 12.589844 C 60.53125 12.769531 60.296875 12.863281 60.019531 12.863281 C 59.742188 12.863281 59.507812 12.769531 59.308594 12.589844 C 59.113281 12.40625 59.015625 12.1875 59.015625 11.929688 C 59.015625 11.671875 59.113281 11.449219 59.308594 11.269531 C 59.507812 11.085938 59.742188 10.996094 60.019531 10.996094 C 60.296875 10.996094 60.53125 11.085938 60.730469 11.269531 C 60.925781 11.449219 61.023438 11.671875 61.023438 11.929688 Z M 61.023438 11.929688 " fill-opacity="1" fill-rule="nonzero"/><path fill="#0277bd" d="M 40.558594 4.855469 C 40.558594 5.113281 40.460938 5.335938 40.265625 5.515625 C 40.070312 5.699219 39.832031 5.789062 39.554688 5.789062 C 39.277344 5.789062 39.042969 5.699219 38.847656 5.515625 C 38.648438 5.335938 38.550781 5.113281 38.550781 4.855469 C 38.550781 4.597656 38.648438 4.378906 38.847656 4.195312 C 39.042969 4.015625 39.277344 3.921875 39.554688 3.921875 C 39.832031 3.921875 40.070312 4.015625 40.265625 4.195312 C 40.460938 4.378906 40.558594 4.597656 40.558594 4.855469 Z M 40.558594 4.855469 " fill-opacity="1" fill-rule="nonzero"/><path fill="#0277bd" d="M 14.859375 12.0625 C 14.859375 12.320312 14.761719 12.542969 14.566406 12.722656 C 14.371094 12.90625 14.132812 12.996094 13.855469 12.996094 C 13.582031 12.996094 13.34375 12.90625 13.148438 12.722656 C 12.953125 12.542969 12.855469 12.320312 12.855469 12.0625 C 12.855469 11.804688 12.953125 11.585938 13.148438 11.402344 C 13.34375 11.222656 13.582031 11.128906 13.855469 11.128906 C 14.132812 11.128906 14.371094 11.222656 14.566406 11.402344 C 14.761719 11.585938 14.859375 11.804688 14.859375 12.0625 Z M 14.859375 12.0625 " fill-opacity="1" fill-rule="nonzero"/><g clip-path="url(#8cdcd36244)"><path fill="#0277bd" d="M 28.457031 1.289062 C 28.457031 1.546875 28.359375 1.769531 28.160156 1.949219 C 27.964844 2.132812 27.730469 2.222656 27.453125 2.222656 C 27.175781 2.222656 26.9375 2.132812 26.742188 1.949219 C 26.546875 1.769531 26.449219 1.546875 26.449219 1.289062 C 26.449219 1.03125 26.546875 0.8125 26.742188 0.628906 C 26.9375 0.449219 27.175781 0.355469 27.453125 0.355469 C 27.730469 0.355469 27.964844 0.449219 28.160156 0.628906 C 28.359375 0.8125 28.457031 1.03125 28.457031 1.289062 Z M 28.457031 1.289062 " fill-opacity="1" fill-rule="nonzero"/></g><path fill="#0277bd" d="M 5.292969 24.089844 C 5.292969 24.246094 5.234375 24.378906 5.117188 24.488281 C 5 24.597656 4.855469 24.652344 4.6875 24.652344 C 4.523438 24.652344 4.378906 24.597656 4.261719 24.488281 C 4.144531 24.378906 4.082031 24.246094 4.082031 24.089844 C 4.082031 23.9375 4.144531 23.804688 4.261719 23.695312 C 4.378906 23.582031 4.523438 23.527344 4.6875 23.527344 C 4.855469 23.527344 5 23.582031 5.117188 23.695312 C 5.234375 23.804688 5.292969 23.9375 5.292969 24.089844 Z M 5.292969 24.089844 " fill-opacity="1" fill-rule="nonzero"/><path fill="#0277bd" d="M 4.246094 19.769531 C 4.246094 19.878906 4.207031 19.972656 4.121094 20.050781 C 4.039062 20.128906 3.9375 20.164062 3.820312 20.164062 C 3.703125 20.164062 3.601562 20.128906 3.515625 20.050781 C 3.433594 19.972656 3.390625 19.878906 3.390625 19.769531 C 3.390625 19.660156 3.433594 19.566406 3.515625 19.488281 C 3.601562 19.410156 3.703125 19.371094 3.820312 19.371094 C 3.9375 19.371094 4.039062 19.410156 4.121094 19.488281 C 4.207031 19.566406 4.246094 19.660156 4.246094 19.769531 Z M 4.246094 19.769531 " fill-opacity="1" fill-rule="nonzero"/><path fill="#0277bd" d="M 7.742188 12.027344 C 7.742188 12.148438 7.675781 12.210938 7.546875 12.210938 C 7.417969 12.210938 7.351562 12.148438 7.351562 12.027344 C 7.351562 11.90625 7.417969 11.847656 7.546875 11.847656 C 7.675781 11.847656 7.742188 11.90625 7.742188 12.027344 Z M 7.742188 12.027344 " fill-opacity="1" fill-rule="nonzero"/><path fill="#0277bd" d="M 19.984375 3.097656 C 19.984375 3.203125 19.945312 3.292969 19.863281 3.367188 C 19.78125 3.445312 19.683594 3.480469 19.570312 3.480469 C 19.457031 3.480469 19.359375 3.445312 19.277344 3.367188 C 19.199219 3.292969 19.15625 3.203125 19.15625 3.097656 C 19.15625 2.992188 19.199219 2.902344 19.277344 2.824219 C 19.359375 2.75 19.457031 2.714844 19.570312 2.714844 C 19.683594 2.714844 19.78125 2.75 19.863281 2.824219 C 19.945312 2.902344 19.984375 2.992188 19.984375 3.097656 Z M 19.984375 3.097656 " fill-opacity="1" fill-rule="nonzero"/><path fill="#0277bd" d="M 59.15625 4.84375 C 59.15625 4.992188 59.097656 5.121094 58.984375 5.226562 C 58.871094 5.335938 58.730469 5.386719 58.570312 5.386719 C 58.410156 5.386719 58.269531 5.335938 58.15625 5.226562 C 58.042969 5.121094 57.984375 4.992188 57.984375 4.84375 C 57.984375 4.691406 58.042969 4.566406 58.15625 4.457031 C 58.269531 4.351562 58.410156 4.300781 58.570312 4.300781 C 58.730469 4.300781 58.871094 4.351562 58.984375 4.457031 C 59.097656 4.566406 59.15625 4.691406 59.15625 4.84375 Z M 59.15625 4.84375 " fill-opacity="1" fill-rule="nonzero"/><path fill="#0277bd" d="M 29.105469 10.691406 C 29.105469 10.871094 29.039062 11.023438 28.902344 11.148438 C 28.765625 11.277344 28.601562 11.339844 28.410156 11.339844 C 28.21875 11.339844 28.054688 11.277344 27.917969 11.148438 C 27.78125 11.023438 27.714844 10.871094 27.714844 10.691406 C 27.714844 10.511719 27.78125 10.359375 27.917969 10.230469 C 28.054688 10.105469 28.21875 10.042969 28.410156 10.042969 C 28.601562 10.042969 28.765625 10.105469 28.902344 10.230469 C 29.039062 10.359375 29.105469 10.511719 29.105469 10.691406 Z M 29.105469 10.691406 " fill-opacity="1" fill-rule="nonzero"/><path fill="#0277bd" d="M 70.046875 14.28125 C 70.046875 14.464844 69.976562 14.621094 69.839844 14.75 C 69.699219 14.878906 69.535156 14.941406 69.335938 14.941406 C 69.140625 14.941406 68.976562 14.878906 68.835938 14.75 C 68.699219 14.621094 68.628906 14.464844 68.628906 14.28125 C 68.628906 14.101562 68.699219 13.945312 68.835938 13.816406 C 68.976562 13.6875 69.140625 13.621094 69.335938 13.621094 C 69.535156 13.621094 69.699219 13.6875 69.839844 13.816406 C 69.976562 13.945312 70.046875 14.101562 70.046875 14.28125 Z M 70.046875 14.28125 " fill-opacity="1" fill-rule="nonzero"/><path fill="#0277bd" d="M 73.910156 26.816406 C 73.910156 26.890625 73.882812 26.957031 73.824219 27.007812 C 73.765625 27.0625 73.699219 27.089844 73.617188 27.089844 C 73.535156 27.089844 73.464844 27.0625 73.410156 27.007812 C 73.351562 26.957031 73.324219 26.890625 73.324219 26.816406 C 73.324219 26.742188 73.351562 26.675781 73.410156 26.621094 C 73.464844 26.570312 73.535156 26.542969 73.617188 26.542969 C 73.699219 26.542969 73.765625 26.570312 73.824219 26.621094 C 73.882812 26.675781 73.910156 26.742188 73.910156 26.816406 Z M 73.910156 26.816406 " fill-opacity="1" fill-rule="nonzero"/><path fill="#0277bd" d="M 48.378906 12.808594 C 48.378906 12.929688 48.332031 13.03125 48.242188 13.113281 C 48.152344 13.199219 48.042969 13.242188 47.914062 13.242188 C 47.785156 13.242188 47.675781 13.199219 47.582031 13.113281 C 47.492188 13.03125 47.445312 12.929688 47.445312 12.808594 C 47.445312 12.6875 47.492188 12.585938 47.582031 12.5 C 47.675781 12.417969 47.785156 12.375 47.914062 12.375 C 48.042969 12.375 48.152344 12.417969 48.242188 12.5 C 48.332031 12.585938 48.378906 12.6875 48.378906 12.808594 Z M 48.378906 12.808594 " fill-opacity="1" fill-rule="nonzero"/><path fill="#0277bd" d="M 47.015625 2.167969 C 47.015625 2.289062 46.96875 2.390625 46.878906 2.476562 C 46.785156 2.558594 46.675781 2.601562 46.546875 2.601562 C 46.417969 2.601562 46.308594 2.558594 46.21875 2.476562 C 46.125 2.390625 46.082031 2.289062 46.082031 2.167969 C 46.082031 2.050781 46.125 1.945312 46.21875 1.863281 C 46.308594 1.777344 46.417969 1.734375 46.546875 1.734375 C 46.675781 1.734375 46.785156 1.777344 46.878906 1.863281 C 46.96875 1.945312 47.015625 2.050781 47.015625 2.167969 Z M 47.015625 2.167969 " fill-opacity="1" fill-rule="nonzero"/><g clip-path="url(#a594037803)"><path fill="#0277bd" d="M 2.300781 53.089844 C 2.300781 53.347656 2.203125 53.570312 2.007812 53.753906 C 1.8125 53.9375 1.574219 54.03125 1.296875 54.03125 C 1.019531 54.03125 0.785156 53.9375 0.589844 53.753906 C 0.390625 53.570312 0.292969 53.347656 0.292969 53.089844 C 0.292969 52.828125 0.390625 52.605469 0.589844 52.421875 C 0.785156 52.238281 1.019531 52.148438 1.296875 52.148438 C 1.574219 52.148438 1.8125 52.238281 2.007812 52.421875 C 2.203125 52.605469 2.300781 52.828125 2.300781 53.089844 Z M 2.300781 53.089844 " fill-opacity="1" fill-rule="nonzero"/></g><path fill="#0277bd" d="M 19.695312 65.269531 C 19.695312 65.53125 19.59375 65.753906 19.398438 65.9375 C 19.203125 66.121094 18.96875 66.210938 18.691406 66.210938 C 18.414062 66.210938 18.175781 66.121094 17.980469 65.9375 C 17.785156 65.753906 17.6875 65.53125 17.6875 65.269531 C 17.6875 65.011719 17.785156 64.789062 17.980469 64.605469 C 18.175781 64.421875 18.414062 64.328125 18.691406 64.328125 C 18.96875 64.328125 19.203125 64.421875 19.398438 64.605469 C 19.59375 64.789062 19.695312 65.011719 19.695312 65.269531 Z M 19.695312 65.269531 " fill-opacity="1" fill-rule="nonzero"/><path fill="#0277bd" d="M 38.652344 69.085938 C 38.652344 69.34375 38.554688 69.566406 38.355469 69.75 C 38.160156 69.933594 37.925781 70.027344 37.648438 70.027344 C 37.371094 70.027344 37.132812 69.933594 36.9375 69.75 C 36.742188 69.566406 36.644531 69.34375 36.644531 69.085938 C 36.644531 68.824219 36.742188 68.601562 36.9375 68.417969 C 37.132812 68.234375 37.371094 68.144531 37.648438 68.144531 C 37.925781 68.144531 38.160156 68.234375 38.355469 68.417969 C 38.554688 68.601562 38.652344 68.824219 38.652344 69.085938 Z M 38.652344 69.085938 " fill-opacity="1" fill-rule="nonzero"/><path fill="#0277bd" d="M 65.71875 61.351562 C 65.71875 61.613281 65.621094 61.835938 65.425781 62.019531 C 65.230469 62.203125 64.992188 62.292969 64.714844 62.292969 C 64.441406 62.292969 64.203125 62.203125 64.007812 62.019531 C 63.8125 61.835938 63.714844 61.613281 63.714844 61.351562 C 63.714844 61.09375 63.8125 60.871094 64.007812 60.6875 C 64.203125 60.503906 64.441406 60.410156 64.714844 60.410156 C 64.992188 60.410156 65.230469 60.503906 65.425781 60.6875 C 65.621094 60.871094 65.71875 61.09375 65.71875 61.351562 Z M 65.71875 61.351562 " fill-opacity="1" fill-rule="nonzero"/><path fill="#0277bd" d="M 53.015625 72.777344 C 53.015625 73.039062 52.917969 73.261719 52.722656 73.445312 C 52.523438 73.628906 52.289062 73.71875 52.011719 73.71875 C 51.734375 73.71875 51.5 73.628906 51.300781 73.445312 C 51.105469 73.261719 51.007812 73.039062 51.007812 72.777344 C 51.007812 72.519531 51.105469 72.296875 51.300781 72.113281 C 51.5 71.929688 51.734375 71.835938 52.011719 71.835938 C 52.289062 71.835938 52.523438 71.929688 52.722656 72.113281 C 52.917969 72.296875 53.015625 72.519531 53.015625 72.777344 Z M 53.015625 72.777344 " fill-opacity="1" fill-rule="nonzero"/><g clip-path="url(#71b470edd1)"><path fill="#0277bd" d="M 74.542969 48.632812 C 74.542969 48.789062 74.484375 48.921875 74.367188 49.035156 C 74.25 49.144531 74.105469 49.199219 73.941406 49.199219 C 73.773438 49.199219 73.628906 49.144531 73.511719 49.035156 C 73.394531 48.921875 73.335938 48.789062 73.335938 48.632812 C 73.335938 48.476562 73.394531 48.339844 73.511719 48.230469 C 73.628906 48.121094 73.773438 48.0625 73.941406 48.0625 C 74.105469 48.0625 74.25 48.121094 74.367188 48.230469 C 74.484375 48.339844 74.542969 48.476562 74.542969 48.632812 Z M 74.542969 48.632812 " fill-opacity="1" fill-rule="nonzero"/></g><path fill="#0277bd" d="M 73.511719 55.128906 C 73.511719 55.238281 73.46875 55.332031 73.386719 55.414062 C 73.304688 55.492188 73.203125 55.53125 73.085938 55.53125 C 72.964844 55.53125 72.867188 55.492188 72.78125 55.414062 C 72.699219 55.332031 72.65625 55.238281 72.65625 55.128906 C 72.65625 55.019531 72.699219 54.921875 72.78125 54.84375 C 72.867188 54.765625 72.964844 54.726562 73.085938 54.726562 C 73.203125 54.726562 73.304688 54.765625 73.386719 54.84375 C 73.46875 54.921875 73.511719 55.019531 73.511719 55.128906 Z M 73.511719 55.128906 " fill-opacity="1" fill-rule="nonzero"/><path fill="#0277bd" d="M 71.207031 61.535156 C 71.207031 61.660156 71.144531 61.71875 71.011719 61.71875 C 70.882812 61.71875 70.816406 61.660156 70.816406 61.535156 C 70.816406 61.414062 70.882812 61.355469 71.011719 61.355469 C 71.144531 61.355469 71.207031 61.414062 71.207031 61.535156 Z M 71.207031 61.535156 " fill-opacity="1" fill-rule="nonzero"/><path fill="#0277bd" d="M 60.140625 71.355469 C 60.140625 71.464844 60.101562 71.554688 60.019531 71.628906 C 59.941406 71.707031 59.84375 71.746094 59.730469 71.746094 C 59.613281 71.746094 59.519531 71.707031 59.4375 71.628906 C 59.355469 71.554688 59.316406 71.464844 59.316406 71.355469 C 59.316406 71.25 59.355469 71.160156 59.4375 71.082031 C 59.519531 71.007812 59.613281 70.96875 59.730469 70.96875 C 59.84375 70.96875 59.941406 71.007812 60.019531 71.082031 C 60.101562 71.160156 60.140625 71.25 60.140625 71.355469 Z M 60.140625 71.355469 " fill-opacity="1" fill-rule="nonzero"/><path fill="#0277bd" d="M 21.28125 72.296875 C 21.28125 72.449219 21.226562 72.582031 21.109375 72.6875 C 20.996094 72.792969 20.859375 72.847656 20.695312 72.847656 C 20.535156 72.847656 20.398438 72.792969 20.28125 72.6875 C 20.167969 72.582031 20.109375 72.449219 20.109375 72.296875 C 20.109375 72.148438 20.167969 72.015625 20.28125 71.910156 C 20.398438 71.800781 20.535156 71.75 20.695312 71.75 C 20.859375 71.75 20.996094 71.800781 21.109375 71.910156 C 21.226562 72.015625 21.28125 72.148438 21.28125 72.296875 Z M 21.28125 72.296875 " fill-opacity="1" fill-rule="nonzero"/><path fill="#0277bd" d="M 51.007812 64.328125 C 51.007812 64.507812 50.941406 64.664062 50.804688 64.792969 C 50.667969 64.917969 50.503906 64.984375 50.3125 64.984375 C 50.121094 64.984375 49.957031 64.917969 49.820312 64.792969 C 49.683594 64.664062 49.617188 64.507812 49.617188 64.328125 C 49.617188 64.148438 49.683594 63.992188 49.820312 63.867188 C 49.957031 63.738281 50.121094 63.675781 50.3125 63.675781 C 50.503906 63.675781 50.667969 63.738281 50.804688 63.867188 C 50.941406 63.992188 51.007812 64.148438 51.007812 64.328125 Z M 51.007812 64.328125 " fill-opacity="1" fill-rule="nonzero"/><path fill="#0277bd" d="M 9.921875 63.546875 C 9.921875 63.730469 9.851562 63.886719 9.710938 64.015625 C 9.574219 64.144531 9.40625 64.210938 9.210938 64.210938 C 9.015625 64.210938 8.847656 64.144531 8.710938 64.015625 C 8.570312 63.886719 8.5 63.730469 8.5 63.546875 C 8.5 63.363281 8.570312 63.203125 8.710938 63.074219 C 8.847656 62.945312 9.015625 62.878906 9.210938 62.878906 C 9.40625 62.878906 9.574219 62.945312 9.710938 63.074219 C 9.851562 63.203125 9.921875 63.363281 9.921875 63.546875 Z M 9.921875 63.546875 " fill-opacity="1" fill-rule="nonzero"/><path fill="#0277bd" d="M 1.589844 47.3125 C 1.589844 47.386719 1.5625 47.453125 1.503906 47.503906 C 1.449219 47.558594 1.378906 47.585938 1.296875 47.585938 C 1.214844 47.585938 1.148438 47.558594 1.089844 47.503906 C 1.03125 47.453125 1.003906 47.386719 1.003906 47.3125 C 1.003906 47.234375 1.03125 47.167969 1.089844 47.117188 C 1.148438 47.0625 1.214844 47.035156 1.296875 47.035156 C 1.378906 47.035156 1.449219 47.0625 1.503906 47.117188 C 1.5625 47.167969 1.589844 47.234375 1.589844 47.3125 Z M 1.589844 47.3125 " fill-opacity="1" fill-rule="nonzero"/><path fill="#0277bd" d="M 31.160156 64.980469 C 31.160156 65.101562 31.117188 65.207031 31.023438 65.289062 C 30.933594 65.375 30.824219 65.417969 30.695312 65.417969 C 30.566406 65.417969 30.457031 65.375 30.367188 65.289062 C 30.273438 65.207031 30.230469 65.101562 30.230469 64.980469 C 30.230469 64.859375 30.273438 64.757812 30.367188 64.671875 C 30.457031 64.585938 30.566406 64.542969 30.695312 64.542969 C 30.824219 64.542969 30.933594 64.585938 31.023438 64.671875 C 31.117188 64.757812 31.160156 64.859375 31.160156 64.980469 Z M 31.160156 64.980469 " fill-opacity="1" fill-rule="nonzero"/><g clip-path="url(#901a7fb935)"><path fill="#0277bd" d="M 33.363281 74.160156 C 33.363281 74.28125 33.320312 74.382812 33.226562 74.46875 C 33.136719 74.554688 33.027344 74.597656 32.898438 74.597656 C 32.769531 74.597656 32.660156 74.554688 32.570312 74.46875 C 32.476562 74.382812 32.433594 74.28125 32.433594 74.160156 C 32.433594 74.039062 32.476562 73.933594 32.570312 73.847656 C 32.660156 73.765625 32.769531 73.722656 32.898438 73.722656 C 33.027344 73.722656 33.136719 73.765625 33.226562 73.847656 C 33.320312 73.933594 33.363281 74.039062 33.363281 74.160156 Z M 33.363281 74.160156 " fill-opacity="1" fill-rule="nonzero"/></g><path fill="#53c1de" d="M 42.894531 39.007812 C 42.894531 39.296875 42.867188 39.582031 42.8125 39.867188 C 42.753906 40.148438 42.671875 40.425781 42.5625 40.691406 C 42.453125 40.957031 42.320312 41.210938 42.160156 41.449219 C 42 41.691406 41.820312 41.914062 41.617188 42.117188 C 41.414062 42.320312 41.195312 42.503906 40.957031 42.664062 C 40.71875 42.824219 40.46875 42.957031 40.203125 43.070312 C 39.9375 43.179688 39.664062 43.261719 39.386719 43.320312 C 39.105469 43.375 38.820312 43.402344 38.535156 43.402344 C 38.246094 43.402344 37.964844 43.375 37.683594 43.320312 C 37.402344 43.261719 37.128906 43.179688 36.863281 43.070312 C 36.601562 42.957031 36.347656 42.824219 36.109375 42.664062 C 35.875 42.503906 35.652344 42.320312 35.449219 42.117188 C 35.246094 41.914062 35.066406 41.691406 34.90625 41.449219 C 34.75 41.210938 34.613281 40.957031 34.503906 40.691406 C 34.394531 40.425781 34.3125 40.148438 34.257812 39.867188 C 34.199219 39.582031 34.171875 39.296875 34.171875 39.007812 C 34.171875 38.722656 34.199219 38.433594 34.257812 38.152344 C 34.3125 37.871094 34.394531 37.59375 34.503906 37.328125 C 34.613281 37.0625 34.75 36.808594 34.90625 36.570312 C 35.066406 36.328125 35.246094 36.105469 35.449219 35.902344 C 35.652344 35.699219 35.875 35.515625 36.109375 35.355469 C 36.347656 35.195312 36.601562 35.0625 36.863281 34.949219 C 37.128906 34.839844 37.402344 34.757812 37.683594 34.699219 C 37.964844 34.644531 38.246094 34.617188 38.535156 34.617188 C 38.820312 34.617188 39.105469 34.644531 39.386719 34.699219 C 39.664062 34.757812 39.9375 34.839844 40.203125 34.949219 C 40.46875 35.0625 40.71875 35.195312 40.957031 35.355469 C 41.195312 35.515625 41.414062 35.699219 41.617188 35.902344 C 41.820312 36.105469 42 36.328125 42.160156 36.570312 C 42.320312 36.808594 42.453125 37.0625 42.5625 37.328125 C 42.671875 37.59375 42.753906 37.871094 42.8125 38.152344 C 42.867188 38.433594 42.894531 38.722656 42.894531 39.007812 Z M 42.894531 39.007812 " fill-opacity="1" fill-rule="nonzero"/><g clip-path="url(#3ea08cd6cd)"><path fill="#53c1de" d="M 23.328125 46.789062 C 23.757812 46.933594 24.183594 47.078125 24.625 47.203125 C 24.480469 47.777344 24.359375 48.34375 24.242188 48.929688 C 23.242188 54.253906 24.023438 58.472656 26.515625 59.921875 C 29.089844 61.417969 33.410156 59.882812 37.621094 56.171875 C 37.953125 55.875 38.285156 55.570312 38.621094 55.242188 C 39.039062 55.65625 39.476562 56.046875 39.914062 56.429688 C 43.988281 59.960938 48.015625 61.386719 50.503906 59.941406 C 53.074219 58.445312 53.910156 53.910156 52.824219 48.382812 C 52.742188 47.960938 52.644531 47.53125 52.539062 47.089844 C 52.84375 47.003906 53.140625 46.90625 53.433594 46.808594 C 58.929688 44.980469 62.910156 42.015625 62.910156 38.972656 C 62.910156 36.066406 59.15625 33.246094 53.976562 31.453125 L 53.976562 31.449219 C 53.464844 31.277344 52.949219 31.113281 52.4375 30.960938 C 52.519531 30.609375 52.597656 30.25 52.671875 29.898438 C 53.847656 24.179688 53.074219 19.589844 50.472656 18.070312 C 47.96875 16.625 43.882812 18.128906 39.753906 21.753906 C 39.34375 22.109375 38.945312 22.484375 38.5625 22.859375 C 38.304688 22.609375 38.039062 22.359375 37.773438 22.121094 C 33.441406 18.242188 29.097656 16.613281 26.5 18.140625 C 24.003906 19.597656 23.261719 23.925781 24.308594 29.332031 C 24.414062 29.867188 24.527344 30.394531 24.660156 30.933594 C 24.050781 31.105469 23.453125 31.296875 22.890625 31.5 C 17.804688 33.273438 14.160156 36.074219 14.160156 38.972656 C 14.160156 41.964844 18.042969 44.964844 23.328125 46.789062 Z M 36.277344 54.605469 C 34.707031 56.054688 32.886719 57.203125 30.90625 57.992188 C 29.851562 58.5 28.632812 58.546875 27.546875 58.117188 C 26.03125 57.234375 25.402344 53.847656 26.257812 49.289062 C 26.363281 48.753906 26.480469 48.214844 26.609375 47.6875 C 28.742188 48.148438 30.894531 48.464844 33.078125 48.628906 C 34.332031 50.421875 35.710938 52.140625 37.191406 53.75 C 36.886719 54.046875 36.582031 54.335938 36.277344 54.601562 Z M 48.371094 36.59375 C 47.921875 35.746094 47.464844 34.90625 46.988281 34.082031 C 46.519531 33.265625 46.035156 32.460938 45.53125 31.664062 C 47.066406 31.855469 48.53125 32.113281 49.902344 32.429688 C 49.464844 33.851562 48.949219 35.230469 48.371094 36.59375 Z M 48.386719 41.367188 C 48.996094 42.761719 49.53125 44.171875 49.996094 45.621094 C 48.519531 45.953125 47.027344 46.214844 45.523438 46.386719 C 46.035156 45.582031 46.519531 44.753906 47 43.929688 C 47.484375 43.085938 47.941406 42.234375 48.386719 41.367188 Z M 47.285156 38.984375 C 46.648438 40.308594 45.960938 41.609375 45.230469 42.894531 C 44.507812 44.171875 43.734375 45.410156 42.929688 46.636719 C 41.511719 46.742188 40.035156 46.789062 38.539062 46.789062 C 37.042969 46.789062 35.597656 46.742188 34.199219 46.65625 C 33.367188 45.4375 32.589844 44.1875 31.855469 42.914062 C 31.121094 41.640625 30.445312 40.34375 29.808594 39.019531 L 29.804688 39.019531 C 30.429688 37.695312 31.117188 36.402344 31.839844 35.125 C 32.5625 33.851562 33.347656 32.613281 34.164062 31.394531 C 35.59375 31.289062 37.050781 31.230469 38.535156 31.230469 C 40.023438 31.230469 41.488281 31.289062 42.90625 31.394531 C 43.714844 32.605469 44.488281 33.839844 45.222656 35.105469 C 45.953125 36.375 46.640625 37.667969 47.285156 38.984375 Z M 30.066406 34.097656 C 29.601562 34.914062 29.144531 35.746094 28.714844 36.589844 C 28.117188 35.164062 27.609375 33.761719 27.191406 32.410156 C 28.5625 32.101562 30.019531 31.855469 31.53125 31.660156 C 31.03125 32.457031 30.535156 33.273438 30.066406 34.097656 Z M 28.71875 41.445312 C 29.15625 42.289062 29.601562 43.125 30.078125 43.949219 C 30.5625 44.785156 31.058594 45.621094 31.582031 46.433594 C 30.097656 46.269531 28.621094 46.03125 27.164062 45.714844 C 27.582031 44.332031 28.109375 42.902344 28.71875 41.445312 Z M 38.613281 52.273438 C 37.640625 51.21875 36.667969 50.050781 35.726562 48.792969 C 36.640625 48.828125 37.582031 48.847656 38.535156 48.847656 C 39.515625 48.847656 40.476562 48.828125 41.429688 48.78125 C 40.554688 50 39.613281 51.160156 38.613281 52.273438 Z M 51.058594 55.152344 C 50.96875 56.320312 50.398438 57.414062 49.484375 58.152344 C 47.972656 59.035156 44.742188 57.886719 41.257812 54.871094 C 40.859375 54.527344 40.457031 54.152344 40.050781 53.769531 C 41.507812 52.148438 42.847656 50.433594 44.066406 48.628906 C 46.246094 48.445312 48.417969 48.113281 50.5625 47.621094 C 50.65625 48.015625 50.742188 48.410156 50.820312 48.792969 C 51.285156 50.867188 51.363281 53.023438 51.058594 55.152344 Z M 51.882812 32.9375 C 52.378906 33.082031 52.855469 33.234375 53.3125 33.386719 C 57.746094 34.921875 60.863281 37.207031 60.863281 38.953125 C 60.863281 40.832031 57.539062 43.261719 52.789062 44.839844 C 52.519531 44.925781 52.253906 45.011719 51.980469 45.089844 C 51.3125 43 50.496094 40.957031 49.550781 38.972656 C 50.464844 37.015625 51.238281 35 51.882812 32.9375 Z M 41.09375 23.308594 C 44.636719 20.203125 47.941406 18.984375 49.445312 19.855469 C 51.054688 20.789062 51.675781 24.546875 50.664062 29.484375 C 50.597656 29.8125 50.53125 30.128906 50.445312 30.445312 C 48.332031 29.96875 46.191406 29.621094 44.035156 29.429688 C 42.800781 27.640625 41.445312 25.9375 39.980469 24.332031 C 40.351562 23.980469 40.714844 23.644531 41.09375 23.308594 Z M 38.554688 25.804688 C 39.554688 26.894531 40.496094 28.046875 41.371094 29.234375 C 39.488281 29.148438 37.589844 29.148438 35.707031 29.234375 C 36.640625 28 37.601562 26.847656 38.554688 25.804688 Z M 27.507812 19.925781 C 29.109375 18.984375 32.660156 20.328125 36.402344 23.664062 C 36.640625 23.875 36.875 24.105469 37.125 24.335938 C 35.648438 25.9375 34.285156 27.640625 33.039062 29.425781 C 30.886719 29.621094 28.753906 29.953125 26.640625 30.425781 C 26.515625 29.9375 26.414062 29.4375 26.308594 28.9375 C 25.414062 24.292969 26.003906 20.796875 27.507812 19.925781 Z M 23.558594 33.445312 C 24.101562 33.253906 24.652344 33.082031 25.207031 32.917969 C 25.851562 35 26.632812 37.042969 27.535156 39.019531 C 26.621094 41.023438 25.832031 43.09375 25.175781 45.203125 L 25.175781 45.207031 C 24.773438 45.089844 24.382812 44.964844 23.996094 44.832031 C 21.96875 44.1875 19.660156 43.171875 17.996094 41.839844 C 17.035156 41.167969 16.386719 40.132812 16.207031 38.972656 C 16.207031 37.214844 19.214844 34.96875 23.558594 33.445312 Z M 23.558594 33.445312 " fill-opacity="1" fill-rule="nonzero"/></g></svg>